<?xml version="1.0" standalone="no"?>
<!DOCTYPE svg PUBLIC "-//W3C//DTD SVG 20010904//EN"
 "http://www.w3.org/TR/2001/REC-SVG-20010904/DTD/svg10.dtd">
<svg version="1.0" xmlns="http://www.w3.org/2000/svg"
 width="700.000000pt" height="700.000000pt" viewBox="0 0 700.000000 700.000000"
 preserveAspectRatio="xMidYMid meet">
<metadata>
Created by potrace 1.11, written by Peter Selinger 2001-2013
</metadata>
<g transform="translate(0.000000,700.000000) scale(0.100000,-0.100000)"
fill="#000000" stroke="none">
<path d="M4618 5615 c-2 -2 -48 -6 -103 -9 -389 -27 -798 -191 -1128 -453
-103 -82 -1363 -1338 -1402 -1398 -87 -135 -94 -305 -17 -443 37 -66 115 -137
192 -175 61 -30 72 -32 175 -32 180 0 182 1 530 345 160 158 306 296 325 307
83 49 201 70 297 52 49 -9 148 -53 171 -76 7 -7 21 -18 31 -25 33 -24 89 -106
105 -155 34 -103 23 -221 -29 -309 -23 -40 -571 -595 -670 -679 -180 -153
-430 -257 -670 -281 -105 -10 -311 -4 -334 11 -4 2 -26 6 -49 10 -71 10 -222
64 -316 113 -287 148 -507 407 -610 716 -28 86 -32 101 -51 221 -11 73 -12
282 -2 330 3 11 8 40 12 65 4 25 9 53 11 63 6 36 67 204 88 247 76 150 127
219 281 381 121 126 141 152 180 233 23 50 46 107 49 126 3 19 8 46 11 60 11
51 6 177 -9 243 -18 78 -72 195 -113 246 -58 72 -137 141 -169 147 -76 14 -82
9 -400 -309 -207 -207 -325 -335 -378 -406 -278 -375 -419 -799 -420 -1256 0
-87 13 -285 19 -295 2 -3 6 -26 9 -51 3 -24 8 -53 10 -64 166 -819 806 -1469
1616 -1639 169 -35 231 -41 445 -41 198 0 266 7 430 41 241 51 489 152 694
284 l75 48 45 -31 c25 -18 55 -37 66 -43 11 -6 38 -21 60 -34 142 -82 377
-176 530 -210 28 -7 59 -14 70 -16 22 -5 103 -19 180 -31 68 -10 403 -10 490
0 542 65 1040 341 1391 772 35 43 65 86 165 236 47 71 173 345 184 402 2 9 6
21 9 25 9 14 54 194 65 257 6 33 13 74 16 90 10 58 19 191 18 300 0 107 -11
284 -19 296 -2 4 -6 31 -10 60 -4 30 -10 64 -15 77 -5 12 -7 22 -4 22 2 0 -1
15 -6 33 -6 17 -12 40 -14 51 -7 30 -55 179 -65 201 -5 11 -21 49 -35 84 -182
443 -585 860 -1031 1067 -152 70 -328 130 -444 150 -14 3 -32 7 -40 9 -8 3
-33 7 -55 10 -22 3 -49 8 -60 10 -54 11 -368 28 -377 20z m267 -858 c313 -54
614 -228 786 -455 24 -31 46 -59 49 -62 17 -16 102 -163 105 -180 0 -3 6 -14
11 -25 28 -52 75 -194 89 -270 20 -112 27 -299 13 -400 -8 -63 -44 -215 -65
-269 -25 -67 -101 -215 -142 -275 -114 -167 -292 -322 -476 -413 -65 -33 -201
-84 -249 -94 -297 -63 -521 -46 -788 61 -38 15 -68 30 -68 33 0 3 64 72 143
152 169 172 177 181 243 287 71 113 133 274 149 388 4 22 8 51 11 65 6 32 6
247 0 269 -3 9 -7 34 -11 55 -20 138 -89 310 -178 441 -82 122 -386 405 -434
405 -7 0 -13 5 -13 10 0 6 -4 10 -9 10 -6 0 -26 10 -46 22 l-37 21 54 34 c155
99 352 172 512 189 28 3 53 8 55 10 5 5 262 -4 296 -9z"/>
</g>
</svg>
